<svg width="466" height="263" viewBox="0 0 466 263" fill="none" xmlns="http://www.w3.org/2000/svg">
<rect y="0.860352" width="465" height="261.14" fill="white"/>
<path d="M453.286 198.328L465 208.223L464.745 243.071L453.031 253.826L420.435 225.862L453.286 198.328Z" fill="#782886"/>
<path d="M66.4648 19.1445L89.1291 0H105.936L74.8685 26.4581L66.4648 19.1445Z" fill="#782886"/>
<path d="M0 135.947L81.7442 66.8982L88.6199 72.491L0 147.563V135.947Z" fill="#ED145B"/>
<rect width="44.7613" height="44.7572" transform="matrix(0.764111 0.645085 -0.763757 0.645504 53.3203 8.17407)" fill="#FFBF00"/>
<rect width="25.2897" height="25.2873" transform="matrix(0.764111 0.645085 -0.763757 0.645504 95.8101 46.0327)" fill="#782886"/>
<path d="M228.426 124.977L102.117 231.455L110.775 238.553L228.171 138.959L287.251 188.649L295.654 181.765L228.426 124.977Z" fill="#782886"/>
<ellipse cx="311.188" cy="200.91" rx="33.6145" ry="28.3941" fill="#DC3545"/>
<path d="M60.0986 196.608L138.278 261.785H0V246.728L60.0986 196.608Z" fill="#FFBF00"/>
<path d="M363.647 258.128L367.722 261.57H389.622L393.697 258.128L378.417 245.437L363.647 258.128Z" fill="#FFBF00"/>
<path d="M389.877 225.862L432.659 261.785H465V181.335L453.795 171.87L389.877 225.862Z" stroke="#DC3545" stroke-width="2"/>
<path d="M351.678 258.128L356.262 261.785H401.591L405.411 258.128L378.417 235.542L351.678 258.128Z" stroke="#782886" stroke-width="2"/>
<path d="M0 228.228V193.166L20.6271 210.589L0 228.228Z" fill="#DC3545"/>
<path d="M350.151 1.50567L349.132 0.860352H285.723V1.50567L317.809 28.6091L350.151 1.50567Z" fill="#782886"/>
</svg>
